<?xml version="1.0" encoding="UTF-8" standalone="no"?>
<!DOCTYPE svg PUBLIC "-//W3C//DTD SVG 1.1//EN"
 "http://www.w3.org/Graphics/SVG/1.1/DTD/svg11.dtd">
<!-- Generated by graphviz version 2.38.0 (20140413.2041)
 -->
<!-- Title: G Pages: 1 -->
<svg width="484pt" height="318pt"
 viewBox="0.00 0.00 484.40 318.00" xmlns="http://www.w3.org/2000/svg" xmlns:xlink="http://www.w3.org/1999/xlink">
<g id="graph0" class="graph" transform="scale(1 1) rotate(0) translate(4 314)">
<title>G</title>
<polygon fill="white" stroke="none" points="-4,4 -4,-314 480.4,-314 480.4,4 -4,4"/>
<!-- apparat/kernel -->
<g id="node1" class="node"><title>apparat/kernel</title>
<path fill="#eeeeee" stroke="black" stroke-width="2" d="M226.9,-310C226.9,-310 155.9,-310 155.9,-310 149.9,-310 143.9,-304 143.9,-298 143.9,-298 143.9,-286 143.9,-286 143.9,-280 149.9,-274 155.9,-274 155.9,-274 226.9,-274 226.9,-274 232.9,-274 238.9,-280 238.9,-286 238.9,-286 238.9,-298 238.9,-298 238.9,-304 232.9,-310 226.9,-310"/>
<text text-anchor="middle" x="191.4" y="-288.3" font-family="Times New Roman,serif" font-size="14.00" fill="#314b5f">apparat/kernel</text>
</g>
<!-- php -->
<g id="node2" class="node"><title>php</title>
<path fill="#eeeeee" stroke="black" d="M282.4,-36C282.4,-36 252.4,-36 252.4,-36 246.4,-36 240.4,-30 240.4,-24 240.4,-24 240.4,-12 240.4,-12 240.4,-6 246.4,-0 252.4,-0 252.4,-0 282.4,-0 282.4,-0 288.4,-0 294.4,-6 294.4,-12 294.4,-12 294.4,-24 294.4,-24 294.4,-30 288.4,-36 282.4,-36"/>
<text text-anchor="middle" x="267.4" y="-14.3" font-family="Times New Roman,serif" font-size="14.00" fill="#314b5f">php</text>
</g>
<!-- apparat/kernel&#45;&gt;php -->
<g id="edge1" class="edge"><title>apparat/kernel&#45;&gt;php</title>
<path fill="none" stroke="#1a2833" d="M143.816,-275.524C77.255,-251.2 -31.1974,-200.21 9.40012,-137 58.6149,-60.373 171.326,-32.8794 230.138,-23.5183"/>
<polygon fill="#1a2833" stroke="#1a2833" points="230.753,-26.9653 240.124,-22.0215 229.715,-20.0427 230.753,-26.9653"/>
<text text-anchor="middle" x="23.9001" y="-152.5" font-family="Times New Roman,serif" font-size="10.00" fill="#767676">&gt;=5.6.0</text>
</g>
<!-- vlucas/phpdotenv -->
<g id="node3" class="node"><title>vlucas/phpdotenv</title>
<path fill="#eeeeee" stroke="black" d="M192.9,-173C192.9,-173 59.9001,-173 59.9001,-173 53.9001,-173 47.9001,-167 47.9001,-161 47.9001,-161 47.9001,-149 47.9001,-149 47.9001,-143 53.9001,-137 59.9001,-137 59.9001,-137 192.9,-137 192.9,-137 198.9,-137 204.9,-143 204.9,-149 204.9,-149 204.9,-161 204.9,-161 204.9,-167 198.9,-173 192.9,-173"/>
<text text-anchor="middle" x="126.4" y="-151.3" font-family="Times New Roman,serif" font-size="14.00" fill="#314b5f">vlucas/phpdotenv: v2.4.0</text>
</g>
<!-- apparat/kernel&#45;&gt;vlucas/phpdotenv -->
<g id="edge2" class="edge"><title>apparat/kernel&#45;&gt;vlucas/phpdotenv</title>
<path fill="none" stroke="#1a2833" d="M179.889,-273.867C176.337,-268.278 172.537,-261.973 169.4,-256 156.696,-231.812 144.626,-203.05 136.527,-182.595"/>
<polygon fill="#1a2833" stroke="#1a2833" points="139.678,-181.042 132.778,-173.001 133.158,-183.589 139.678,-181.042"/>
<text text-anchor="middle" x="175.9" y="-248" font-family="Times New Roman,serif" font-size="10.00" fill="#767676">2.*</text>
</g>
<!-- level&#45;2/dice -->
<g id="node4" class="node"><title>level&#45;2/dice</title>
<path fill="#eeeeee" stroke="black" d="M312.4,-173C312.4,-173 222.4,-173 222.4,-173 216.4,-173 210.4,-167 210.4,-161 210.4,-161 210.4,-149 210.4,-149 210.4,-143 216.4,-137 222.4,-137 222.4,-137 312.4,-137 312.4,-137 318.4,-137 324.4,-143 324.4,-149 324.4,-149 324.4,-161 324.4,-161 324.4,-167 318.4,-173 312.4,-173"/>
<text text-anchor="middle" x="267.4" y="-151.3" font-family="Times New Roman,serif" font-size="14.00" fill="#314b5f">level&#45;2/dice: 2.0.3</text>
</g>
<!-- apparat/kernel&#45;&gt;level&#45;2/dice -->
<g id="edge3" class="edge"><title>apparat/kernel&#45;&gt;level&#45;2/dice</title>
<path fill="none" stroke="#1a2833" d="M201.026,-273.902C214.031,-250.8 237.339,-209.397 252.586,-182.314"/>
<polygon fill="#1a2833" stroke="#1a2833" points="255.757,-183.816 257.613,-173.385 249.657,-180.382 255.757,-183.816"/>
<text text-anchor="middle" x="223.9" y="-248" font-family="Times New Roman,serif" font-size="10.00" fill="#767676">2.*</text>
</g>
<!-- monolog/monolog -->
<g id="node5" class="node"><title>monolog/monolog</title>
<path fill="#eeeeee" stroke="black" d="M407.9,-227C407.9,-227 270.9,-227 270.9,-227 264.9,-227 258.9,-221 258.9,-215 258.9,-215 258.9,-203 258.9,-203 258.9,-197 264.9,-191 270.9,-191 270.9,-191 407.9,-191 407.9,-191 413.9,-191 419.9,-197 419.9,-203 419.9,-203 419.9,-215 419.9,-215 419.9,-221 413.9,-227 407.9,-227"/>
<text text-anchor="middle" x="339.4" y="-205.3" font-family="Times New Roman,serif" font-size="14.00" fill="#314b5f">monolog/monolog: 1.22.0</text>
</g>
<!-- apparat/kernel&#45;&gt;monolog/monolog -->
<g id="edge4" class="edge"><title>apparat/kernel&#45;&gt;monolog/monolog</title>
<path fill="none" stroke="#1a2833" d="M222.787,-273.822C245.133,-261.592 275.344,-245.058 299.416,-231.883"/>
<polygon fill="#1a2833" stroke="#1a2833" points="301.221,-234.885 308.312,-227.014 297.86,-228.745 301.221,-234.885"/>
<text text-anchor="middle" x="279.9" y="-248" font-family="Times New Roman,serif" font-size="10.00" fill="#767676">1.x</text>
</g>
<!-- vlucas/phpdotenv&#45;&gt;php -->
<g id="edge9" class="edge"><title>vlucas/phpdotenv&#45;&gt;php</title>
<path fill="none" stroke="#1a2833" d="M144.258,-136.902C168.914,-113.296 213.527,-70.5808 241.747,-43.5612"/>
<polygon fill="#1a2833" stroke="#1a2833" points="244.439,-45.8293 249.242,-36.3854 239.598,-40.7731 244.439,-45.8293"/>
<text text-anchor="middle" x="214.9" y="-98.5" font-family="Times New Roman,serif" font-size="10.00" fill="#767676">&gt;=5.3.9</text>
</g>
<!-- level&#45;2/dice&#45;&gt;php -->
<g id="edge5" class="edge"><title>level&#45;2/dice&#45;&gt;php</title>
<path fill="none" stroke="#1a2833" d="M267.4,-136.902C267.4,-114.103 267.4,-73.4791 267.4,-46.3861"/>
<polygon fill="#1a2833" stroke="#1a2833" points="270.9,-46.3854 267.4,-36.3854 263.9,-46.3855 270.9,-46.3854"/>
<text text-anchor="middle" x="281.9" y="-98.5" font-family="Times New Roman,serif" font-size="10.00" fill="#767676">&gt;=5.6.0</text>
</g>
<!-- monolog/monolog&#45;&gt;php -->
<g id="edge6" class="edge"><title>monolog/monolog&#45;&gt;php</title>
<path fill="none" stroke="#1a2833" d="M337.182,-190.781C335.029,-176.219 331.223,-154.923 325.4,-137 314.675,-103.99 296.23,-68.5649 283.018,-45.2389"/>
<polygon fill="#1a2833" stroke="#1a2833" points="285.91,-43.2468 277.889,-36.3244 279.842,-46.7377 285.91,-43.2468"/>
<text text-anchor="middle" x="333.9" y="-98.5" font-family="Times New Roman,serif" font-size="10.00" fill="#767676">&gt;=5.3.0</text>
</g>
<!-- psr/log -->
<g id="node6" class="node"><title>psr/log</title>
<path fill="#eeeeee" stroke="black" d="M464.4,-119C464.4,-119 398.4,-119 398.4,-119 392.4,-119 386.4,-113 386.4,-107 386.4,-107 386.4,-95 386.4,-95 386.4,-89 392.4,-83 398.4,-83 398.4,-83 464.4,-83 464.4,-83 470.4,-83 476.4,-89 476.4,-95 476.4,-95 476.4,-107 476.4,-107 476.4,-113 470.4,-119 464.4,-119"/>
<text text-anchor="middle" x="431.4" y="-97.3" font-family="Times New Roman,serif" font-size="14.00" fill="#314b5f">psr/log: 1.0.2</text>
</g>
<!-- monolog/monolog&#45;&gt;psr/log -->
<g id="edge7" class="edge"><title>monolog/monolog&#45;&gt;psr/log</title>
<path fill="none" stroke="#1a2833" d="M354.182,-190.969C369.181,-173.687 392.567,-146.743 409.675,-127.032"/>
<polygon fill="#1a2833" stroke="#1a2833" points="412.438,-129.187 416.35,-119.341 407.152,-124.599 412.438,-129.187"/>
<text text-anchor="middle" x="407.9" y="-152.5" font-family="Times New Roman,serif" font-size="10.00" fill="#767676">~1.0</text>
</g>
<!-- psr/log&#45;&gt;php -->
<g id="edge8" class="edge"><title>psr/log&#45;&gt;php</title>
<path fill="none" stroke="#1a2833" d="M404.507,-82.8205C389.717,-73.7115 370.871,-62.6488 353.4,-54 337.639,-46.1975 319.692,-38.6885 304.285,-32.6401"/>
<polygon fill="#1a2833" stroke="#1a2833" points="305.165,-29.2279 294.575,-28.8878 302.641,-35.7573 305.165,-29.2279"/>
<text text-anchor="middle" x="387.9" y="-57" font-family="Times New Roman,serif" font-size="10.00" fill="#767676">&gt;=5.3.0</text>
</g>
</g>
</svg>
