<!--

http://www.webgraphviz.com/

digraph G {
	node [	fontname = "Arial" ];
	"main" -> "github"
	"github" -> "codeclimate"
	"github" -> "coverage"
	"github" -> "scrutinizer"
	"github" -> "docs"
	"main" -> "apidocs"
}

--><svg viewBox="0 0 460 188" xmlns="http://www.w3.org/2000/svg">
    <g class="graph" transform="translate(4 184)">
        <title>G</title>
        <path fill="#fff" stroke="#fff" d="M-4 5v-189h461V5H-4z"/>
        <g class="node">
            <title>main</title>
            <ellipse fill="none" stroke="#000" cx="305" cy="-162" rx="31.4395" ry="18"/>
            <text text-anchor="middle" x="305" y="-157.8" font-family="Arial" font-size="14.00">main</text>
        </g>
        <g class="node">
            <title>github</title>
            <ellipse fill="none" stroke="#000" cx="255" cy="-90" rx="37.0058" ry="18"/>
            <text text-anchor="middle" x="255" y="-85.8" font-family="Arial" font-size="14.00">github</text>
        </g>
        <g class="edge">
            <title>main-&gt;github</title>
            <path fill="none" stroke="#000" d="M293.654-145.116c-6.24 8.736-14.116 19.763-21.13 29.58"/>
            <path stroke="#000" d="M275.308-113.41l-8.66 6.103 2.964-10.172 5.696 4.07z"/>
        </g>
        <g class="node">
            <title>apidocs</title>
            <ellipse fill="none" stroke="#000" cx="355" cy="-90" rx="43.9657" ry="18"/>
            <text text-anchor="middle" x="355" y="-85.8" font-family="Arial" font-size="14.00">apidocs</text>
        </g>
        <g class="edge">
            <title>main-&gt;apidocs</title>
            <path fill="none" stroke="#000" d="M316.346-145.116l20.828 29.16"/>
            <path stroke="#000" d="M340.038-117.97l2.964 10.173-8.66-6.103 5.696-4.07z"/>
        </g>
        <g class="node">
            <title>codeclimate</title>
            <ellipse fill="none" stroke="#000" cx="62" cy="-18" rx="62.3213" ry="18"/>
            <text text-anchor="middle" x="62" y="-13.8" font-family="Arial" font-size="14.00">codeclimate</text>
        </g>
        <g class="edge">
            <title>github-&gt;codeclimate</title>
            <path fill="none" stroke="#000" d="M226.106-78.52L108.854-35.994"/>
            <path stroke="#000" d="M109.975-32.677l-10.594.12 8.21-6.7 2.386 6.58z"/>
        </g>
        <g class="node">
            <title>coverage</title>
            <ellipse fill="none" stroke="#000" cx="193" cy="-18" rx="50.624" ry="18"/>
            <text text-anchor="middle" x="193" y="-13.8" font-family="Arial" font-size="14.00">coverage</text>
        </g>
        <g class="edge">
            <title>github-&gt;coverage</title>
            <path fill="none" stroke="#000" d="M240.93-73.116l-26.725 30.174"/>
            <path stroke="#000" d="M216.694-40.472l-9.25 5.165 4.01-9.807 5.24 4.642z"/>
        </g>
        <g class="node">
            <title>scrutinizer</title>
            <ellipse fill="none" stroke="#000" cx="317" cy="-18" rx="55.0387" ry="18"/>
            <text text-anchor="middle" x="317" y="-13.8" font-family="Arial" font-size="14.00">scrutinizer</text>
        </g>
        <g class="edge">
            <title>github-&gt;scrutinizer</title>
            <path fill="none" stroke="#000" d="M269.07-73.116l26.346 29.746"/>
            <path stroke="#000" d="M298.112-45.604l4.01 9.807-9.25-5.166 5.24-4.64z"/>
        </g>
        <g class="node">
            <title>docs</title>
            <ellipse fill="none" stroke="#000" cx="421" cy="-18" rx="31.1457" ry="18"/>
            <text text-anchor="middle" x="421" y="-13.8" font-family="Arial" font-size="14.00">docs</text>
        </g>
        <g class="edge">
            <title>github-&gt;docs</title>
            <path fill="none" stroke="#000" d="M282.54-77.45C308.077-66.733 347.12-50.325 381-36l6.232 2.638"/>
            <path stroke="#000" d="M388.63-36.57l7.838 7.127-10.573-.684 2.734-6.444z"/>
        </g>
    </g>
</svg>
